<?xml version="1.0" encoding="UTF-8"?>
<svg height="16px" viewBox="0 0 16 16" width="16px" xmlns="http://www.w3.org/2000/svg" xmlns:xlink="http://www.w3.org/1999/xlink">
    <filter id="a" height="100%" width="100%" x="0%" y="0%">
        <feColorMatrix in="SourceGraphic" type="matrix" values="0 0 0 0 1 0 0 0 0 1 0 0 0 0 1 0 0 0 1 0"/>
    </filter>
    <mask id="b">
        <g filter="url(#a)">
            <rect fill-opacity="0.187" height="16" width="16"/>
        </g>
    </mask>
    <clipPath id="c">
        <rect height="152" width="192"/>
    </clipPath>
    <g clip-path="url(#c)" mask="url(#b)" transform="matrix(1 0 0 1 -168 -16)">
        <path d="m 114 24 h -2 v 102 h 2 z m 0 0" fill="#ffffff"/>
    </g>
    <path d="m 0 0 h 16 v 2 h -16 z m 0 0"/>
    <path d="m 0 4 h 2 v 12 h -2 z m 0 0"/>
    <path d="m 14 4 h 2 v 12 h -2 z m 0 0"/>
    <path d="m 0 13 h 16 v 2 h -16 z m 0 0"/>
    <path d="m 3 4 h 2 v 8 h -2 z m 0 0"/>
    <path d="m 3 3 h 10 v 2 h -10 z m 0 0"/>
    <path d="m 11 4 h 2 v 7 h -2 z m 0 0"/>
    <path d="m 3 10 h 10 v 2 h -10 z m 0 0"/>
    <path d="m 7 4 h 2 v 7 h -2 z m 0 0"/>
    <path d="m 3 6.5 h 10 v 2 h -10 z m 0 0"/>
</svg>
