<?xml version="1.0" encoding="UTF-8"?>
<svg height="128px" viewBox="0 0 128 128" width="128px" xmlns="http://www.w3.org/2000/svg" xmlns:xlink="http://www.w3.org/1999/xlink">
    <defs>
        <linearGradient id="a" gradientTransform="matrix(-0.25 0 0 0.25 123.999994 53.000015)" gradientUnits="userSpaceOnUse" x1="384" x2="416" y1="120" y2="120">
            <stop offset="0" stop-color="#deddda"/>
            <stop offset="0.511049" stop-color="#ffffff"/>
            <stop offset="1" stop-color="#c0bfbc"/>
        </linearGradient>
        <filter id="b" height="100%" width="100%" x="0%" y="0%">
            <feColorMatrix in="SourceGraphic" type="matrix" values="0 0 0 0 1 0 0 0 0 1 0 0 0 0 1 0 0 0 1 0"/>
        </filter>
        <mask id="c">
            <g filter="url(#b)">
                <rect fill-opacity="0.187" height="128" width="128"/>
            </g>
        </mask>
        <mask id="d">
            <g filter="url(#b)">
                <rect fill-opacity="0.187" height="128" width="128"/>
            </g>
        </mask>
        <clipPath id="e">
            <rect height="152" width="192"/>
        </clipPath>
        <g id="f" clip-path="url(#e)">
            <path d="m 114 24 h -2 v 102 h 2 z m 0 0" fill="#ffffff"/>
        </g>
        <clipPath id="g">
            <rect height="128" width="128"/>
        </clipPath>
        <clipPath id="h">
            <rect height="128" width="128"/>
        </clipPath>
        <mask id="i">
            <g clip-path="url(#h)" filter="url(#b)">
                <g clip-path="url(#g)">
                    <path d="m 108 28 v 92 h -80 c -4.433594 0 -8 -3.566406 -8 -8 v -76 c 0 -4.433594 3.566406 -8 8 -8 z m 0 0" fill="#a02c2c"/>
                    <path d="m 106 48 v 70 h -78 c -4.433594 0 -8 -3.566406 -8 -8 v -54 c 0 -4.433594 3.566406 -8 8 -8 z m 0 0" fill="url(#a)"/>
                    <path d="m 108 28 v 84 h -80 c -4.433594 0 -8 -3.566406 -8 -8 v -68 c 0 -4.433594 3.566406 -8 8 -8 z m 0 0" fill="#a02c2c"/>
                    <path d="m 108 8 v 102 h -80 c -4.433594 0 -8 -3.566406 -8 -8 v -86 c 0 -4.433594 3.566406 -8 8 -8 z m 0 0" fill="#ee4035"/>
                    <use mask="url(#d)" transform="matrix(1 0 0 1 -8 -16)" xlink:href="#f"/>
                    <path d="m 73.871094 118.058594 c 0.371094 -0.003906 0.980468 -0.003906 1.351562 0 c 0.371094 0 0.066406 0.003906 -0.675781 0.003906 c -0.746094 0 -1.046875 -0.003906 -0.675781 -0.003906 z m 0 0" fill="#800000"/>
                    <path d="m 72.941406 118.054688 h -0.117187 l -0.003907 -0.027344 v -0.027344 h 1.371094 c 0.753906 0 1.371094 0 1.367188 0.003906 c 0 0 -0.542969 0.003906 -1.207032 0.003906 c -1.105468 0.003907 -1.449218 0.007813 -1.503906 0.015626 c -0.019531 0.003906 -0.023437 0.007812 -0.007812 0.011718 c 0.023437 0.007813 0.234375 0.011719 0.636718 0.015625 c 0.277344 0 0.394532 0.003907 0.335938 0.003907 c -0.089844 0.003906 -0.632812 0.003906 -0.871094 0 z m 0 0" fill="#800000"/>
                    <path d="m 73.722656 118.054688 h 0.128906 c 0.042969 0.003906 0.023438 0.003906 -0.070312 0.003906 c -0.101562 0 -0.113281 0 -0.058594 -0.003906 z m 0 0" fill="#800000"/>
                    <path d="m 71.6875 119.996094 h 1.132812 l 0.003907 -0.070313 v -0.070312 v 0.136719 h 1.367187 c 0.910156 0 1.367188 0 1.367188 0.003906 s -0.835938 0.003906 -2.5 0.003906 c -1.847656 0 -2.207032 0 -1.371094 -0.003906 z m 0 0" fill="#800000"/>
                    <path d="m 72.824219 119.957031 c 0 -0.015625 0 -0.046875 0 -0.066406 c 0.003906 -0.035156 0.003906 -0.035156 0.003906 0.027344 v 0.070312 s 0 -0.011719 -0.003906 -0.03125 z m 0 0" fill="#800000"/>
                    <path d="m 79.234375 83.691406 c -0.132813 -0.300781 -0.242187 -0.816406 -0.242187 -1.136718 c 0 -0.324219 -0.25 -0.957032 -0.550782 -1.402344 c -0.515625 -0.761719 -1.535156 -0.816406 -15.585937 -0.816406 c -12.289063 0 -15.125 -0.113282 -15.519531 -0.625 c -0.65625 -0.84375 -0.285157 -1.320313 1.289062 -1.652344 c 2.121094 -0.445313 19.472656 -1.707032 24.992188 -1.816406 c 2.910156 -0.058594 5.390624 -0.242188 5.511718 -0.414063 c 0.210938 -0.296875 1.71875 -6.984375 2.496094 -11.101563 c 0.214844 -1.140624 0.574219 -4.242187 0.796875 -6.890624 c 0.46875 -5.601563 0.679687 -6.699219 1.296875 -6.699219 c 0.507812 0 2.914062 2.464843 3.421875 3.503906 c 0.269531 0.550781 0.296875 1.03125 0.144531 2.566406 c -0.417968 4.195313 -3.351562 18.335938 -4.640625 22.375 c -1.140625 3.558594 -2.78125 5.539063 -3.410156 4.109375 z m 0 0" fill="#ffffff"/>
                    <path d="m 51.996094 70.96875 c -0.414063 -1.757812 -0.648438 -5.503906 -0.792969 -12.78125 c -0.132813 -6.699219 -0.195313 -7.621094 -0.597656 -8.855469 c -0.246094 -0.757812 -0.449219 -1.488281 -0.449219 -1.625 c 0 -0.582031 1.679688 -0.1875 2.144531 0.5 c 0.390625 0.585938 0.808594 0.695313 1.871094 0.496094 c 0.75 -0.136719 4.699219 -0.910156 8.777344 -1.710937 c 10.117187 -1.988282 13.070312 -1.699219 13.496093 1.328124 c 0.066407 0.476563 -0.058593 1.875 -0.273437 3.105469 c -0.605469 3.417969 -3.847656 18.457031 -4.039063 18.726563 c -0.089843 0.128906 -4.210937 0.351562 -9.152343 0.492187 c -5.433594 0.152344 -9.136719 0.4375 -9.371094 0.71875 c -0.609375 0.742188 -1.390625 0.550781 -1.613281 -0.394531 z m 7.421875 -3.09375 c 0.464843 -0.28125 0.796875 -2.199219 1.019531 -5.863281 c 0.101562 -1.714844 0.0625 -2.175781 -0.203125 -2.410157 c -0.183594 -0.15625 -1.445313 -0.023437 -2.800781 0.296876 c -3.089844 0.730468 -3.328125 1.113281 -3.117188 4.964843 c 0.078125 1.429688 0.25 2.75 0.378906 2.933594 c 0.273438 0.398437 4.09375 0.460937 4.722657 0.078125 z m 10.207031 -2.882812 c 0.695312 -2.871094 1.867188 -10.902344 2 -13.71875 c 0.105469 -2.296876 0.089844 -2.402344 -0.4375 -2.699219 c -0.847656 -0.480469 -5.027344 0.054687 -5.648438 0.722656 c -0.308593 0.335937 -0.734374 1.449219 -0.964843 2.515625 c -0.710938 3.328125 -0.691407 3.359375 1.816406 3.535156 c 1.425781 0.101563 2.316406 0.363282 2.476563 0.730469 c 0.4375 0.992187 -0.089844 1.554687 -1.886719 2.011719 c -2.410157 0.613281 -2.570313 0.730468 -2.886719 2.132812 c -0.433594 1.910156 -0.601562 4.953125 -0.339844 6.066406 c 0.21875 0.917969 0.367188 0.960938 2.804688 0.839844 l 2.574218 -0.128906 z m -12.355469 -7.617188 c 3.003907 -0.847656 3.109375 -0.945312 2.976563 -2.742188 c -0.058594 -0.785156 -0.203125 -1.996093 -0.320313 -2.691406 c -0.210937 -1.242187 -0.25 -1.265625 -1.898437 -1.253906 c -2.007813 0.011719 -3.199219 0.570312 -3.550782 1.660156 c -0.339843 1.046875 -0.34375 5.074219 -0.007812 5.382813 c 0.378906 0.34375 0.296875 0.351562 2.800781 -0.355469 z m 0 0" fill="#ffffff"/>
                    <path d="m 42.742188 82.800781 l -0.726563 -1.445312 l 0.03125 -12.695313 c 0.035156 -13.566406 -0.039063 -14.851562 -1 -16.792968 c -1.367187 -2.753907 0.796875 -4.007813 3.421875 -1.980469 c 1.320312 1.019531 1.320312 1.019531 1.457031 3.089843 c 0.191407 2.863282 0.179688 14.550782 -0.019531 22.410157 c -0.199219 7.804687 -0.394531 8.859375 -1.636719 8.859375 c -0.609375 0 -0.976562 -0.347656 -1.527343 -1.445313 z m 0 0" fill="#ffffff"/>
                    <path d="m 49.234375 39.453125 c -1.207031 -0.847656 -1.695313 -1.53125 -1.3125 -1.824219 c 0.167969 -0.125 2.453125 -0.324218 5.074219 -0.445312 c 3.652344 -0.164063 5.941406 -0.542969 9.75 -1.621094 c 7.402344 -2.09375 8.085937 -2.179688 9.699218 -1.210938 c 2.679688 1.613282 3.378907 3.042969 2.125 4.339844 c -0.816406 0.84375 -1.550781 0.90625 -13.449218 1.128906 c -8.527344 0.160157 -11.253906 0.078126 -11.886719 -0.367187 z m 0 0" fill="#ffffff"/>
                    <path d="m 79.285156 83.171875 c -0.386718 -1.785156 -0.925781 -2.511719 -2.011718 -2.730469 c -0.585938 -0.117187 -6.734376 -0.226562 -13.660157 -0.242187 c -13.8125 -0.035157 -16.0625 -0.183594 -16.234375 -1.078125 c -0.070312 -0.367188 0.210938 -0.65625 0.789063 -0.800782 c 1.8125 -0.453124 14.496093 -1.386718 28.574219 -2.101562 c 1.121093 -0.054688 2.203124 -0.265625 2.402343 -0.464844 c 0.648438 -0.652344 2.761719 -11.492187 3.328125 -17.09375 c 0.628906 -6.230468 0.828125 -7.421875 1.242188 -7.421875 c 0.160156 0 1.042968 0.832031 1.957031 1.847657 l 1.660156 1.847656 l -0.238281 2.425781 c -0.28125 2.855469 -2.945312 16.140625 -4.050781 20.21875 c -0.804688 2.953125 -2.375 6.214844 -3.109375 6.453125 c -0.238282 0.074219 -0.527344 -0.304688 -0.648438 -0.859375 z m 0 0" fill="#ffffff"/>
                </g>
            </g>
        </mask>
        <mask id="j">
            <g filter="url(#b)">
                <rect fill-opacity="0.8" height="128" width="128"/>
            </g>
        </mask>
        <linearGradient id="k" gradientTransform="matrix(0 0.37 -0.98462 0 295.38501 -30.360001)" gradientUnits="userSpaceOnUse" x1="300" x2="428" y1="235" y2="235">
            <stop offset="0" stop-color="#f9f06b"/>
            <stop offset="1" stop-color="#f5c211"/>
        </linearGradient>
        <clipPath id="l">
            <rect height="128" width="128"/>
        </clipPath>
        <clipPath id="m">
            <rect height="128" width="128"/>
        </clipPath>
    </defs>
    <path d="m 108 28 v 92 h -80 c -4.433594 0 -8 -3.566406 -8 -8 v -76 c 0 -4.433594 3.566406 -8 8 -8 z m 0 0" fill="#a02c2c"/>
    <path d="m 106 48 v 70 h -78 c -4.433594 0 -8 -3.566406 -8 -8 v -54 c 0 -4.433594 3.566406 -8 8 -8 z m 0 0" fill="url(#a)"/>
    <path d="m 108 28 v 84 h -80 c -4.433594 0 -8 -3.566406 -8 -8 v -68 c 0 -4.433594 3.566406 -8 8 -8 z m 0 0" fill="#a02c2c"/>
    <path d="m 108 8 v 102 h -80 c -4.433594 0 -8 -3.566406 -8 -8 v -86 c 0 -4.433594 3.566406 -8 8 -8 z m 0 0" fill="#ee4035"/>
    <use mask="url(#c)" transform="matrix(1 0 0 1 -8 -16)" xlink:href="#f"/>
    <g fill="#800000">
        <path d="m 73.871094 118.058594 c 0.371094 -0.003906 0.980468 -0.003906 1.351562 0 c 0.371094 0 0.066406 0.003906 -0.675781 0.003906 c -0.746094 0 -1.046875 -0.003906 -0.675781 -0.003906 z m 0 0"/>
        <path d="m 72.941406 118.054688 h -0.117187 l -0.003907 -0.027344 v -0.027344 h 1.371094 c 0.753906 0 1.371094 0 1.367188 0.003906 c 0 0 -0.542969 0.003906 -1.207032 0.003906 c -1.105468 0.003907 -1.449218 0.007813 -1.503906 0.015626 c -0.019531 0.003906 -0.023437 0.007812 -0.007812 0.011718 c 0.023437 0.007813 0.234375 0.011719 0.636718 0.015625 c 0.277344 0 0.394532 0.003907 0.335938 0.003907 c -0.089844 0.003906 -0.632812 0.003906 -0.871094 0 z m 0 0"/>
        <path d="m 73.722656 118.054688 h 0.128906 c 0.042969 0.003906 0.023438 0.003906 -0.070312 0.003906 c -0.101562 0 -0.113281 0 -0.058594 -0.003906 z m 0 0"/>
        <path d="m 71.6875 119.996094 h 1.132812 l 0.003907 -0.070313 v -0.070312 v 0.136719 h 1.367187 c 0.910156 0 1.367188 0 1.367188 0.003906 s -0.835938 0.003906 -2.5 0.003906 c -1.847656 0 -2.207032 0 -1.371094 -0.003906 z m 0 0"/>
        <path d="m 72.824219 119.957031 c 0 -0.015625 0 -0.046875 0 -0.066406 c 0.003906 -0.035156 0.003906 -0.035156 0.003906 0.027344 v 0.070312 s 0 -0.011719 -0.003906 -0.03125 z m 0 0"/>
    </g>
    <path d="m 79.234375 83.691406 c -0.132813 -0.300781 -0.242187 -0.816406 -0.242187 -1.136718 c 0 -0.324219 -0.25 -0.957032 -0.550782 -1.402344 c -0.515625 -0.761719 -1.535156 -0.816406 -15.585937 -0.816406 c -12.289063 0 -15.125 -0.113282 -15.519531 -0.625 c -0.65625 -0.84375 -0.285157 -1.320313 1.289062 -1.652344 c 2.121094 -0.445313 19.472656 -1.707032 24.992188 -1.816406 c 2.910156 -0.058594 5.390624 -0.242188 5.511718 -0.414063 c 0.210938 -0.296875 1.71875 -6.984375 2.496094 -11.101563 c 0.214844 -1.140624 0.574219 -4.242187 0.796875 -6.890624 c 0.46875 -5.601563 0.679687 -6.699219 1.296875 -6.699219 c 0.507812 0 2.914062 2.464843 3.421875 3.503906 c 0.269531 0.550781 0.296875 1.03125 0.144531 2.566406 c -0.417968 4.195313 -3.351562 18.335938 -4.640625 22.375 c -1.140625 3.558594 -2.78125 5.539063 -3.410156 4.109375 z m 0 0" fill="#ffffff"/>
    <path d="m 51.996094 70.96875 c -0.414063 -1.757812 -0.648438 -5.503906 -0.792969 -12.78125 c -0.132813 -6.699219 -0.195313 -7.621094 -0.597656 -8.855469 c -0.246094 -0.757812 -0.449219 -1.488281 -0.449219 -1.625 c 0 -0.582031 1.679688 -0.1875 2.144531 0.5 c 0.390625 0.585938 0.808594 0.695313 1.871094 0.496094 c 0.75 -0.136719 4.699219 -0.910156 8.777344 -1.710937 c 10.117187 -1.988282 13.070312 -1.699219 13.496093 1.328124 c 0.066407 0.476563 -0.058593 1.875 -0.273437 3.105469 c -0.605469 3.417969 -3.847656 18.457031 -4.039063 18.726563 c -0.089843 0.128906 -4.210937 0.351562 -9.152343 0.492187 c -5.433594 0.152344 -9.136719 0.4375 -9.371094 0.71875 c -0.609375 0.742188 -1.390625 0.550781 -1.613281 -0.394531 z m 7.421875 -3.09375 c 0.464843 -0.28125 0.796875 -2.199219 1.019531 -5.863281 c 0.101562 -1.714844 0.0625 -2.175781 -0.203125 -2.410157 c -0.183594 -0.15625 -1.445313 -0.023437 -2.800781 0.296876 c -3.089844 0.730468 -3.328125 1.113281 -3.117188 4.964843 c 0.078125 1.429688 0.25 2.75 0.378906 2.933594 c 0.273438 0.398437 4.09375 0.460937 4.722657 0.078125 z m 10.207031 -2.882812 c 0.695312 -2.871094 1.867188 -10.902344 2 -13.71875 c 0.105469 -2.296876 0.089844 -2.402344 -0.4375 -2.699219 c -0.847656 -0.480469 -5.027344 0.054687 -5.648438 0.722656 c -0.308593 0.335937 -0.734374 1.449219 -0.964843 2.515625 c -0.710938 3.328125 -0.691407 3.359375 1.816406 3.535156 c 1.425781 0.101563 2.316406 0.363282 2.476563 0.730469 c 0.4375 0.992187 -0.089844 1.554687 -1.886719 2.011719 c -2.410157 0.613281 -2.570313 0.730468 -2.886719 2.132812 c -0.433594 1.910156 -0.601562 4.953125 -0.339844 6.066406 c 0.21875 0.917969 0.367188 0.960938 2.804688 0.839844 l 2.574218 -0.128906 z m -12.355469 -7.617188 c 3.003907 -0.847656 3.109375 -0.945312 2.976563 -2.742188 c -0.058594 -0.785156 -0.203125 -1.996093 -0.320313 -2.691406 c -0.210937 -1.242187 -0.25 -1.265625 -1.898437 -1.253906 c -2.007813 0.011719 -3.199219 0.570312 -3.550782 1.660156 c -0.339843 1.046875 -0.34375 5.074219 -0.007812 5.382813 c 0.378906 0.34375 0.296875 0.351562 2.800781 -0.355469 z m 0 0" fill="#ffffff"/>
    <path d="m 42.742188 82.800781 l -0.726563 -1.445312 l 0.03125 -12.695313 c 0.035156 -13.566406 -0.039063 -14.851562 -1 -16.792968 c -1.367187 -2.753907 0.796875 -4.007813 3.421875 -1.980469 c 1.320312 1.019531 1.320312 1.019531 1.457031 3.089843 c 0.191407 2.863282 0.179688 14.550782 -0.019531 22.410157 c -0.199219 7.804687 -0.394531 8.859375 -1.636719 8.859375 c -0.609375 0 -0.976562 -0.347656 -1.527343 -1.445313 z m 0 0" fill="#ffffff"/>
    <path d="m 49.234375 39.453125 c -1.207031 -0.847656 -1.695313 -1.53125 -1.3125 -1.824219 c 0.167969 -0.125 2.453125 -0.324218 5.074219 -0.445312 c 3.652344 -0.164063 5.941406 -0.542969 9.75 -1.621094 c 7.402344 -2.09375 8.085937 -2.179688 9.699218 -1.210938 c 2.679688 1.613282 3.378907 3.042969 2.125 4.339844 c -0.816406 0.84375 -1.550781 0.90625 -13.449218 1.128906 c -8.527344 0.160157 -11.253906 0.078126 -11.886719 -0.367187 z m 0 0" fill="#ffffff"/>
    <path d="m 79.285156 83.171875 c -0.386718 -1.785156 -0.925781 -2.511719 -2.011718 -2.730469 c -0.585938 -0.117187 -6.734376 -0.226562 -13.660157 -0.242187 c -13.8125 -0.035157 -16.0625 -0.183594 -16.234375 -1.078125 c -0.070312 -0.367188 0.210938 -0.65625 0.789063 -0.800782 c 1.8125 -0.453124 14.496093 -1.386718 28.574219 -2.101562 c 1.121093 -0.054688 2.203124 -0.265625 2.402343 -0.464844 c 0.648438 -0.652344 2.761719 -11.492187 3.328125 -17.09375 c 0.628906 -6.230468 0.828125 -7.421875 1.242188 -7.421875 c 0.160156 0 1.042968 0.832031 1.957031 1.847657 l 1.660156 1.847656 l -0.238281 2.425781 c -0.28125 2.855469 -2.945312 16.140625 -4.050781 20.21875 c -0.804688 2.953125 -2.375 6.214844 -3.109375 6.453125 c -0.238282 0.074219 -0.527344 -0.304688 -0.648438 -0.859375 z m 0 0" fill="#ffffff"/>
    <g clip-path="url(#m)" mask="url(#i)">
        <g clip-path="url(#l)" mask="url(#j)">
            <path d="m 128 80.640625 v 47.359375 h -128 v -47.359375 z m 0 0" fill="url(#k)"/>
            <path d="m 13.308594 80.640625 l 47.355468 47.359375 h 21.214844 l -47.359375 -47.359375 z m 42.421875 0 l 47.363281 47.359375 h 21.214844 l -47.363282 -47.359375 z m 42.429687 0 l 29.839844 29.839844 v -21.210938 l -8.628906 -8.628906 z m -98.160156 7.90625 v 21.214844 l 18.238281 18.238281 h 21.214844 z m 0 0"/>
        </g>
    </g>
</svg>
